<svg width="720" height="560" viewBox="0 0 720 560" fill="none" xmlns="http://www.w3.org/2000/svg" role="img" aria-label="Portfolio illustration showing data charts, code, and tennis">
  <rect width="720" height="560" rx="44" fill="#EEF3FF"/>
  <circle cx="585" cy="92" r="58" fill="#DDE7FF"/>
  <circle cx="105" cy="470" r="72" fill="#E6FBF7"/>
  <rect x="86" y="82" width="548" height="332" rx="28" fill="white" stroke="#DCE4F5" stroke-width="3"/>
  <rect x="124" y="124" width="210" height="18" rx="9" fill="#172033"/>
  <rect x="124" y="160" width="310" height="13" rx="6.5" fill="#AAB7D4"/>
  <rect x="124" y="185" width="250" height="13" rx="6.5" fill="#C3CCE2"/>
  <rect x="124" y="236" width="74" height="110" rx="14" fill="#3957E8"/>
  <rect x="222" y="203" width="74" height="143" rx="14" fill="#67B6F4"/>
  <rect x="320" y="260" width="74" height="86" rx="14" fill="#14B8A6"/>
  <path d="M442 324C469 258 512 230 583 218" stroke="#172033" stroke-width="10" stroke-linecap="round"/>
  <circle cx="594" cy="215" r="14" fill="#14B8A6"/>
  <rect x="110" y="431" width="330" height="50" rx="18" fill="#172033"/>
  <circle cx="151" cy="456" r="13" fill="#14B8A6"/>
  <rect x="178" y="446" width="220" height="10" rx="5" fill="#DDE7FF"/>
  <path d="M540 383L628 471" stroke="#172033" stroke-width="15" stroke-linecap="round"/>
  <ellipse cx="500" cy="343" rx="64" ry="92" transform="rotate(-42 500 343)" fill="white" stroke="#172033" stroke-width="12"/>
  <path d="M459 296L548 385M480 275L569 364M438 318L527 407" stroke="#AAB7D4" stroke-width="5" stroke-linecap="round"/>
  <path d="M430 351L520 261M453 374L543 284M476 397L566 307" stroke="#AAB7D4" stroke-width="5" stroke-linecap="round"/>
  <text x="124" y="392" font-family="Arial, Helvetica, sans-serif" font-size="24" font-weight="700" fill="#172033">Data • Code • Tennis</text>
</svg>
